<?xml version="1.0" encoding="utf-8"?>
<!-- Generator: Adobe Illustrator 25.2.3, SVG Export Plug-In . SVG Version: 6.00 Build 0)  -->
<svg version="1.1" id="Calque_1" xmlns="http://www.w3.org/2000/svg" xmlns:xlink="http://www.w3.org/1999/xlink" x="0px" y="0px"
	 viewBox="0 0 276.7 68.3" style="enable-background:new 0 0 276.7 68.3;" xml:space="preserve">
<style type="text/css">
	.st0{fill:#6A8CC4;}
	.st1{fill:#575756;}
</style>
<polygon class="st0" points="50.8,32.3 27.3,68.3 74.2,68.3 "/>
<polygon class="st1" points="85.1,68.3 50,13.4 14.3,68.3 0,68.3 45.3,0.1 54.6,0.1 99.7,68.3 "/>
<path class="st0" d="M105.9,68.3V0.2h55.5c15.1,0,20.9,5.6,20.9,14.7v6.3c0,5.9-3.2,10.4-8,11.3c5.1,1.4,8.9,4.5,8.9,11.1v10
	c0,7.7-4.7,14.7-21.6,14.7H105.9z M169.4,15.5c0-3.8-2-5.3-8-5.3h-42.6v17.7h42.6c6,0,8-1.5,8-5.3V15.5z M170.3,43.8
	c0-4.3-3.6-5.8-8.7-5.8h-42.8v20.2h42.8c5.1,0,8.7-1.5,8.7-7.1V43.8z"/>
<path class="st1" d="M196.1,68.3V58.2h59.2c5.8,0,8.5-2.2,8.5-6.3v-8.6c0-4.1-2.7-6.3-8.5-6.3h-40.1c-15.5,0-21.4-6.7-21.4-16.5v-4
	c0-9.8,5.9-16.5,21.4-16.5h57.7v10.1h-57.7c-5.8,0-8.5,2.2-8.5,6.3v4.2c0,4.1,2.7,6.3,8.5,6.3h40.1c15.5,0,21.4,6.7,21.4,16.5v8.4
	c0,9.8-5.9,16.5-21.4,16.5L196.1,68.3L196.1,68.3z"/>
</svg>
