<!--
 ~ +~+~+~+~+~+~+~+~+~+~+~+~+~+~+~+~+~+~+~+~+~+~+~+~+~+~+~+~+~+~+~+~+~+~+~
 ~ Licensed Materials - Property of IBM
 ~ 6949-66B
 ~ (C) Copyright International Business Machines Corp. 2016, 2018.
 ~ All Rights Reserved.
 ~ US Government Users Restricted Rights - Use, duplication or disclosure
 ~ restricted by GSA ADP Schedule Contract with IBM Corp.
 ~ +~+~+~+~+~+~+~+~+~+~+~+~+~+~+~+~+~+~+~+~+~+~+~+~+~+~+~+~+~+~+~+~+~+~+~
 -->
<svg xmlns="http://www.w3.org/2000/svg" viewBox="0 0 365.09 39.57"><g id="Layer_2" data-name="Layer 2"><g id="Artwork"><path d="M0,39V35.31H5.1v-29H0V2.65H14.56V6.29H9.46v29h5.1V39Z"/><path d="M22.52,2.65H37.44a9.65,9.65,0,0,1,7.1,2.55A9.18,9.18,0,0,1,47.11,12a9.11,9.11,0,0,1-.57,3.43,7.14,7.14,0,0,1-1.46,2.32,6,6,0,0,1-1.92,1.35,9.7,9.7,0,0,1-1.92.6V20a7.67,7.67,0,0,1,2.21.52A7.3,7.3,0,0,1,45.76,22a8.55,8.55,0,0,1,1.85,2.6,8.88,8.88,0,0,1,.75,3.82,12,12,0,0,1-.7,4.16,10.16,10.16,0,0,1-1.95,3.33,9,9,0,0,1-3,2.21A8.64,8.64,0,0,1,39,39H22.52Zm4.36,15.71h10A5.94,5.94,0,0,0,41,17.06a4.77,4.77,0,0,0,1.45-3.75V11.54A4.77,4.77,0,0,0,41,7.8a5.89,5.89,0,0,0-4.06-1.3h-10Zm0,16.74H37.65a6.45,6.45,0,0,0,4.42-1.43,5.32,5.32,0,0,0,1.61-4.19V27.72a5.32,5.32,0,0,0-1.61-4.19,6.45,6.45,0,0,0-4.42-1.43H26.88Z"/><path d="M84.76,8.37H84.5l-3.07,6.09-8.68,15.8-8.69-15.8L61,8.37h-.26V39H56.47V2.65H62.3L72.7,22.2H73L83.41,2.65H89V39H84.76Z"/><path d="M121.89,39.57a18.23,18.23,0,0,1-8.11-1.64,18.57,18.57,0,0,1-5.67-4.24l5.2-5.26a11.72,11.72,0,0,0,9.1,4.12,6.56,6.56,0,0,0,4.31-1.18,3.91,3.91,0,0,0,1.41-3.15,3.78,3.78,0,0,0-.84-2.5,5.37,5.37,0,0,0-3.37-1.36l-3.59-.46q-5.77-.73-8.45-3.49a10.08,10.08,0,0,1-2.68-7.34,10.45,10.45,0,0,1,.94-4.48,9.79,9.79,0,0,1,2.67-3.49,12.59,12.59,0,0,1,4.27-2.27,19,19,0,0,1,5.74-.8,18.62,18.62,0,0,1,7.23,1.3,14.78,14.78,0,0,1,5.36,3.8l-5.25,5.31A10.74,10.74,0,0,0,127,10a10.15,10.15,0,0,0-4.65-.95,6.93,6.93,0,0,0-4,.92,3,3,0,0,0-1.3,2.58,3.22,3.22,0,0,0,1,2.67,7,7,0,0,0,3.3,1.19L125,17c3.74.59,6.51,1.75,8.32,3.46s2.7,4.16,2.7,7.32a12.06,12.06,0,0,1-.93,4.78,10.38,10.38,0,0,1-2.73,3.75,12.59,12.59,0,0,1-4.45,2.42A19.34,19.34,0,0,1,121.89,39.57Z"/><path d="M142.17.47h7.69V23.19h.31l3.38-5,5.46-6.5h8.53l-9.1,10.45L168.58,39h-9.15L153.29,27.4l-3.43,3.85V39h-7.69Z"/><path d="M176,8.74a4.68,4.68,0,0,1-3.41-1.07,3.69,3.69,0,0,1-1.06-2.73V3.8a3.69,3.69,0,0,1,1.06-2.73,6,6,0,0,1,6.81,0,3.7,3.7,0,0,1,1.07,2.73V4.94a3.7,3.7,0,0,1-1.07,2.73A4.65,4.65,0,0,1,176,8.74Zm-3.85,2.91h7.7V39h-7.7Z"/><path d="M194.69,39q-4,0-5.8-1.93A7.71,7.71,0,0,1,187,31.46V.47h7.7V33h3.43v6Z"/><path d="M210,39q-4,0-5.8-1.93a7.71,7.71,0,0,1-1.85-5.56V.47h7.7V33h3.43v6Z"/><path d="M227.39,39.57a15.53,15.53,0,0,1-6.65-1.27,15.44,15.44,0,0,1-4.84-3.62l4.53-4.57a11.92,11.92,0,0,0,3.22,2.55,8.46,8.46,0,0,0,4,.93,5.29,5.29,0,0,0,3.18-.7,2.29,2.29,0,0,0,.88-1.9c0-1.28-.92-2-2.76-2.29l-3-.36q-9.21-1.14-9.2-8.42a8.59,8.59,0,0,1,.75-3.62,8,8,0,0,1,2.13-2.81A10.07,10.07,0,0,1,223,11.67a13.92,13.92,0,0,1,4.39-.65,22.15,22.15,0,0,1,3.77.29,13.26,13.26,0,0,1,2.92.83,11.7,11.7,0,0,1,2.34,1.35,24.5,24.5,0,0,1,2.1,1.8l-4.42,4.52a10,10,0,0,0-2.94-2,8,8,0,0,0-3.35-.76,4.78,4.78,0,0,0-2.81.63,2,2,0,0,0-.83,1.66,2.28,2.28,0,0,0,.6,1.69,4.13,4.13,0,0,0,2.26.86l3.07.42q9,1.18,9,8.21a8,8,0,0,1-.83,3.64A8.58,8.58,0,0,1,235.9,37a11.44,11.44,0,0,1-3.7,1.9A16,16,0,0,1,227.39,39.57Z"/><path d="M244.76,2.65h17.63a9.48,9.48,0,0,1,7.05,2.55A9.19,9.19,0,0,1,272,12a10,10,0,0,1-.55,3.54A6.89,6.89,0,0,1,270,17.89a5.72,5.72,0,0,1-2.14,1.38,8.58,8.58,0,0,1-2.62.49v.31a8.9,8.9,0,0,1,2.73.47A7.77,7.77,0,0,1,270.55,22a8.2,8.2,0,0,1,2,2.63,8.85,8.85,0,0,1,.8,4,11.5,11.5,0,0,1-.7,4,10.23,10.23,0,0,1-2,3.3,9.08,9.08,0,0,1-3,2.21A8.71,8.71,0,0,1,264,39H244.76Zm7.91,14.87h7.85a3.29,3.29,0,0,0,2.44-.88,3.29,3.29,0,0,0,.89-2.44V12.64a3.32,3.32,0,0,0-.89-2.45,3.29,3.29,0,0,0-2.44-.88h-7.85Zm0,14.77h9.1a3.43,3.43,0,0,0,2.47-.86,3.17,3.17,0,0,0,.91-2.41V27.25a3.19,3.19,0,0,0-.91-2.42,3.47,3.47,0,0,0-2.47-.86h-9.1Z"/><path d="M295.15,34.37h-.26a9.28,9.28,0,0,1-1,2A6.53,6.53,0,0,1,292.39,38a7.12,7.12,0,0,1-2.21,1.15,9.69,9.69,0,0,1-2.93.41,7.54,7.54,0,0,1-6.37-2.78c-1.44-1.85-2.16-4.52-2.16-8V11.65h7.69V28.13A7,7,0,0,0,287.3,32a3.32,3.32,0,0,0,3,1.35,6,6,0,0,0,1.77-.26,4.91,4.91,0,0,0,1.56-.75,3.85,3.85,0,0,0,1.09-1.22,3.4,3.4,0,0,0,.42-1.72V11.65h7.7V39h-7.7Z"/><path d="M313.87,8.74a4.68,4.68,0,0,1-3.41-1.07,3.69,3.69,0,0,1-1.06-2.73V3.8a3.69,3.69,0,0,1,1.06-2.73,6,6,0,0,1,6.82,0,3.69,3.69,0,0,1,1.06,2.73V4.94a3.69,3.69,0,0,1-1.06,2.73A4.69,4.69,0,0,1,313.87,8.74ZM310,11.65h7.7V39H310Z"/><path d="M332.54,39q-4,0-5.8-1.93a7.71,7.71,0,0,1-1.85-5.56V.47h7.7V33H336v6Z"/><path d="M357.39,34.37h-.26a7,7,0,0,1-1,2.06,7.13,7.13,0,0,1-1.63,1.66,7.61,7.61,0,0,1-2.19,1.09,8.19,8.19,0,0,1-2.52.39c-3.47,0-6.08-1.22-7.85-3.66s-2.65-6-2.65-10.64.88-8.18,2.65-10.61S346.33,11,349.8,11a8,8,0,0,1,4.71,1.46,6.38,6.38,0,0,1,2.62,3.74h.26V.47h7.7V39h-7.7Zm-5-1A5.88,5.88,0,0,0,356,32.27a3.45,3.45,0,0,0,1.43-2.94V21.27A3.45,3.45,0,0,0,356,18.33a5.88,5.88,0,0,0-3.61-1.07,4.76,4.76,0,0,0-3.62,1.54,5.83,5.83,0,0,0-1.43,4.13v4.73a5.84,5.84,0,0,0,1.43,4.14A4.75,4.75,0,0,0,352.35,33.33Z"/></g></g></svg>