<svg xmlns="http://www.w3.org/2000/svg" width="80" height="28"><g fill="none" fill-rule="evenodd"><path fill="#000" d="M32.486.423h-1.958c-1.598 0-1.672.083-1.987 1.385-.001.006-3.281 15.07-3.548 16.302L20.987 1.842c-.345-1.324-.432-1.42-2.042-1.42h-3.32c-1.611 0-1.673.12-2.053 1.41l-4.246 16-3.437-16C5.577.53 5.503.423 3.905.423H1.812c-1.6 0-2.057.083-1.695 1.68L5.63 25.692c.332 1.29.419 1.4 2.016 1.4h2.726c1.66 0 1.722-.123 2.116-1.496L17.153 8.02l4.609 17.796c.354 1.153.429 1.276 2.027 1.276h2.676c1.647 0 1.722-.148 2.082-1.544L34.264 1.77C34.53.53 34.059.423 32.486.423m22.534 0h-1.932c-1.598 0-1.675.07-1.675 1.68v15.44L41.615 1.61C40.91.506 40.749.423 39.164.423h-2.045c-1.586 0-1.697.095-1.697 1.68V25.4c0 1.607.099 1.692 1.685 1.692h1.92c1.648 0 1.709-.11 1.709-1.696v-15.07l9.658 15.619c.737 1.136.823 1.147 2.41 1.147h2.217c1.623 0 1.707-.073 1.707-1.71V2.105c0-1.611-.084-1.681-1.707-1.681"/><path d="M57.794 0h21.671v27.643H57.794z"/><path fill="#EF4E30" d="M42.73 27.096v-9.175l5.851 9.175z"/><path fill="#000" d="M78.389 14.999c-.713-1.158-1.713-2.083-2.971-2.75-1.243-.658-3.181-1.302-5.76-1.915-2.533-.6-4.143-1.179-4.784-1.719-.483-.407-.717-.881-.717-1.448 0-.622.248-1.104.759-1.475.833-.607 2.01-.914 3.498-.914 1.438 0 2.526.284 3.232.846.46.365.819.895 1.073 1.582.414 1.167.414 1.377 2.025 1.319l2.292-.084c1.585-.068 1.809-.267 1.546-1.692-.334-1.819-1.181-3.336-2.54-4.521C74.349.749 71.803 0 68.473 0c-2.033 0-3.798.313-5.243.932-1.456.622-2.588 1.544-3.364 2.737-.775 1.192-1.168 2.493-1.168 3.865 0 2.13.833 3.959 2.477 5.438 1.16 1.045 3.197 1.936 6.05 2.648 2.19.547 3.609.933 4.22 1.145.866.309 1.478.671 1.817 1.077.336.404.5.881.5 1.458 0 .913-.401 1.693-1.227 2.382-.824.688-2.078 1.037-3.728 1.037-1.555 0-2.802-.393-3.71-1.168-.666-.57-1.173-1.391-1.515-2.449-.347-1.252-.408-1.413-2.02-1.262l-2.178.206c-1.587.139-1.761.275-1.477 1.536 0 .003.83 3.694 3.07 5.696 1.786 1.596 4.425 2.365 7.778 2.365 2.296 0 4.244-.329 5.79-.977 1.559-.655 2.783-1.669 3.637-3.016.852-1.345 1.284-2.809 1.284-4.349 0-1.695-.362-3.143-1.076-4.302"/></g></svg>